<svg xmlns="http://www.w3.org/2000/svg"
     width="102.5"
     height="36"
     viewBox="14 0 102.5 36"
     fill="none">

<path xmlns="http://www.w3.org/2000/svg" 
 d="M107.519 0
     H22.98085
     C18.02167 0 14 4.06364 14 9.07661
     V26.9234
     C14 31.9364 18.02167 36 22.98085 36
     H107.519
     C112.48 36 116.5 31.9364 116.5 26.9234
     V9.07661
     C116.5 4.06364 112.478 0 107.519 0
     Z"
  fill="#052B42"
  />
  
  <!-- N -->
  <g transform="translate(21, 0)">
  <path
    d="M16.1411 9.55438
       C17.7334 9.55438 18.8563 10.4347 19.5442 12.0049
       L23.7455 21.7049
       C24.8103 24.1575 26.8178 23.8787 26.8178 23.8787
       C26.8178 25.2604 25.7328 26.5519 24.1385 26.5519
       C22.5443 26.5519 21.4233 25.6696 20.7355 24.0994
       L16.5322 14.4014
       C15.4714 11.9508 13.4619 12.2276 13.4619 12.2276
       V26.3073
       H10.125
       V16.2644
       C10.125 12.4403 13.4436 12.2284 13.4619 12.2276
       C13.4619 10.8459 14.5489 9.55438 16.1411 9.55438
       Z

       M30.1568 19.8419
       C30.1568 23.676 26.8217 23.8785 26.8178 23.8787
       V9.79898
       H30.1568
       V19.8419
       Z"
    fill="#E0FF4F"
  />
  </g>

  <!-- B (moved closer to N) -->
  <g transform="translate(0, 0)">
    <path
      d="M63.9131 9.78899
         C66.7828 9.80704 70.4648 10.4568 70.4648 14.295
         C70.4648 15.9795 69.7186 17.1186 68.8182 17.7122
         L68.8163 17.7143
         C69.7127 17.9831 71.4955 19.2484 71.4955 21.6348
         C71.4955 24.4162 69.8791 26.3134 64.9218 26.3134
         V26.3073
         H54.1751
         V9.78899
         H63.9131
         Z

         M57.5401 23.1829
         H64.97
         V23.1809
         C66.5262 23.1789 68.0241 22.9302 68.0241 21.354
         C68.0241 19.7778 66.3717 19.479 64.9238 19.479
         V19.471
         H57.5401
         V23.1829
         Z

         M57.538 16.543
         H64.9681
         C65.8785 16.535 67.2361 16.2422 67.2361 14.8465
         C67.236 13.4508 66.0529 12.9095 64.5088 12.9095
         H57.538
         V16.543
         Z"
      fill="#E0FF4F"
    />
  </g>

  <!-- I (moved closer to B) -->
  <g transform="translate(0, 0)">
    <path
      d="M77.8984 26.3073
         H74.5375
         V9.78899
         H77.8984
         V26.3073
         Z"
      fill="#E0FF4F"
    />
  </g>

  <!-- S (moved closer to I) -->
  <g transform="translate(-21, 0)">
    <path
      d="M110.53 9.54224
         C114.204 9.58635 119.931 10.2522 120.264 14.8786
         H116.588
         C116.263 12.5364 111.071 12.4581 108.418 12.7248
         C108.4 12.7255 105.22 12.8559 105.22 14.4395
         C105.218 14.4509 105.004 15.8764 108.157 16.168
         C108.506 16.2021 113.134 16.5872 113.464 16.6133
         L113.708 16.6374
         C116.396 16.9142 117.803 17.0585 119.444 18.378
         L119.44 18.378
         L119.432 18.3819
         C121.122 19.8499 121.393 23.1207 118.822 24.8052
         C116.492 26.2992 113.574 26.4857 110.883 26.5519
         C106.932 26.5519 101.273 25.7798 101.279 20.8025
         H104.913
         C105.029 21.9716 105.715 22.6735 106.912 23.0164
         C108.328 23.4115 109.698 23.4617 111.041 23.4718
         C114.109 23.4718 117.097 22.9703 116.905 21.2337
         C116.728 19.6595 114.635 19.499 113.644 19.4228
         C113.614 19.4208 113.584 19.4188 113.554 19.4167
         C112.92 19.3667 109.973 19.1871 109.958 19.1862
         C108.103 19.0539 106.754 18.8514 105.927 18.701
         C104.135 18.3661 103.258 17.6781 102.683 17.1748
         C101.203 15.7831 100.972 12.6787 103.333 11.1205
         C105.44 9.74885 108.095 9.6024 110.53 9.54224
         Z"
      fill="#E0FF4F"
    />
  </g>
</svg>
